HIERARCHY
ROOT hip
{
  OFFSET 0 0 0
  CHANNELS 6 Xposition Yposition Zposition Zrotation Yrotation Xrotation
  JOINT abdomen
  {
    OFFSET 0 20.6881 -0.73152
    CHANNELS 3 Zrotation Xrotation Yrotation
    JOINT chest
    {
      OFFSET 0 11.7043 -0.48768
      CHANNELS 3 Zrotation Xrotation Yrotation
      JOINT neck
      {
        OFFSET 0 22.1894 -2.19456
        CHANNELS 3 Zrotation Xrotation Yrotation
        JOINT head
        {
          OFFSET -0.24384 7.07133 1.2192
          CHANNELS 3 Zrotation Xrotation Yrotation
          JOINT leftEye
          {
            OFFSET 4.14528 8.04674 8.04672
            CHANNELS 3 Zrotation Xrotation Yrotation
            End Site
            {
              OFFSET 1 0 0
            }
          }
          JOINT rightEye
          {
            OFFSET -3.6576 8.04674 8.04672
            CHANNELS 3 Zrotation Xrotation Yrotation
            End Site
            {
              OFFSET 1 0 0
            }
          }
        }
      }
      JOINT rCollar
      {
        OFFSET -2.68224 19.2634 -4.8768
        CHANNELS 3 Zrotation Xrotation Yrotation
        JOINT rShldr
        {
          OFFSET -8.77824 -1.95073 1.46304
          CHANNELS 3 Zrotation Xrotation Yrotation
          JOINT rForeArm
          {
            OFFSET -28.1742 -1.7115 0.48768
            CHANNELS 3 Zrotation Xrotation Yrotation
            JOINT rHand
            {
              OFFSET -22.5879 0.773209 7.07136
              CHANNELS 3 Zrotation Xrotation Yrotation
              JOINT rThumb1
              {
                OFFSET -1.2192 -0.487915 3.41376
                CHANNELS 3 Zrotation Xrotation Yrotation
                JOINT rThumb2
                {
                  OFFSET -3.37035 -0.52449 3.41376
                  CHANNELS 3 Zrotation Xrotation Yrotation
                  End Site
                  {
                    OFFSET -1.78271 -1.18214 1.43049
                  }
                }
              }
              JOINT rIndex1
              {
                OFFSET -7.75947 0.938293 5.60832
                CHANNELS 3 Zrotation Xrotation Yrotation
                JOINT rIndex2
                {
                  OFFSET -2.54057 -0.884171 1.56538
                  CHANNELS 3 Zrotation Xrotation Yrotation
                  End Site
                  {
                    OFFSET -1.62519 -0.234802 1.16502
                  }
                }
              }
              JOINT rMid1
              {
                OFFSET -8.24714 1.18213 3.41376
                CHANNELS 3 Zrotation Xrotation Yrotation
                JOINT rMid2
                {
                  OFFSET -3.10165 -0.590103 1.0647
                  CHANNELS 3 Zrotation Xrotation Yrotation
                  End Site
                  {
                    OFFSET -2.48547 -0.328903 0.83742
                  }
                }
              }
              JOINT rRing1
              {
                OFFSET -8.82822 0.546677 1.51678
                CHANNELS 3 Zrotation Xrotation Yrotation
                JOINT rRing2
                {
                  OFFSET -2.60934 -0.819778 -0.0198488
                  CHANNELS 3 Zrotation Xrotation Yrotation
                  End Site
                  {
                    OFFSET -2.33842 -0.294052 0.168128
                  }
                }
              }
              JOINT rPinky1
              {
                OFFSET -8.27202 -0.0477905 -0.4584
                CHANNELS 3 Zrotation Xrotation Yrotation
                JOINT rPinky2
                {
                  OFFSET -1.82734 -0.647385 -0.700984
                  CHANNELS 3 Zrotation Xrotation Yrotation
                  End Site
                  {
                    OFFSET -1.69225 -0.51767 -0.607171
                  }
                }
              }
            }
          }
        }
      }
      JOINT lCollar
      {
        OFFSET 2.68224 19.2634 -4.8768
        CHANNELS 3 Zrotation Xrotation Yrotation
        JOINT lShldr
        {
          OFFSET 8.77824 -1.95073 1.46304
          CHANNELS 3 Zrotation Xrotation Yrotation
          JOINT lForeArm
          {
            OFFSET 28.1742 -1.7115 0.48768
            CHANNELS 3 Zrotation Xrotation Yrotation
            JOINT lHand
            {
              OFFSET 22.5879 0.773209 7.07136
              CHANNELS 3 Zrotation Xrotation Yrotation
              JOINT lThumb1
              {
                OFFSET 1.2192 -0.487915 3.41376
                CHANNELS 3 Zrotation Xrotation Yrotation
                JOINT lThumb2
                {
                  OFFSET 3.37035 -0.52449 3.41376
                  CHANNELS 3 Zrotation Xrotation Yrotation
                  End Site
                  {
                    OFFSET 1.78271 -1.18214 1.43049
                  }
                }
              }
              JOINT lIndex1
              {
                OFFSET 7.75947 0.938293 5.60832
                CHANNELS 3 Zrotation Xrotation Yrotation
                JOINT lIndex2
                {
                  OFFSET 2.54057 -0.884171 1.56538
                  CHANNELS 3 Zrotation Xrotation Yrotation
                  End Site
                  {
                    OFFSET 1.62519 -0.234802 1.16502
                  }
                }
              }
              JOINT lMid1
              {
                OFFSET 8.24714 1.18213 3.41376
                CHANNELS 3 Zrotation Xrotation Yrotation
                JOINT lMid2
                {
                  OFFSET 3.10165 -0.590103 1.0647
                  CHANNELS 3 Zrotation Xrotation Yrotation
                  End Site
                  {
                    OFFSET 2.48547 -0.328903 0.83742
                  }
                }
              }
              JOINT lRing1
              {
                OFFSET 8.82822 0.546677 1.51678
                CHANNELS 3 Zrotation Xrotation Yrotation
                JOINT lRing2
                {
                  OFFSET 2.60934 -0.819778 -0.0198488
                  CHANNELS 3 Zrotation Xrotation Yrotation
                  End Site
                  {
                    OFFSET 2.33842 -0.294052 0.168128
                  }
                }
              }
              JOINT lPinky1
              {
                OFFSET 8.27202 -0.0477905 -0.4584
                CHANNELS 3 Zrotation Xrotation Yrotation
                JOINT lPinky2
                {
                  OFFSET 1.82734 -0.647385 -0.700984
                  CHANNELS 3 Zrotation Xrotation Yrotation
                  End Site
                  {
                    OFFSET 1.69225 -0.51767 -0.607171
                  }
                }
              }
            }
          }
        }
      }
    }
  }
  JOINT rButtock
  {
    OFFSET -8.77824 4.35084 1.2192
    CHANNELS 3 Zrotation Xrotation Yrotation
    JOINT rThigh
    {
      OFFSET 0 -1.70687 -2.19456
      CHANNELS 3 Zrotation Xrotation Yrotation
      JOINT rShin
      {
        OFFSET 0 -36.8199 0.73152
        CHANNELS 3 Zrotation Xrotation Yrotation
        JOINT rFoot
        {
          OFFSET 0.73152 -45.1104 -5.12064
          CHANNELS 3 Zrotation Xrotation Yrotation
          End Site
          {
            OFFSET -1.1221 -3.69964 12.103
          }
        }
      }
    }
  }
  JOINT lButtock
  {
    OFFSET 8.77824 4.35084 1.2192
    CHANNELS 3 Zrotation Xrotation Yrotation
    JOINT lThigh
    {
      OFFSET 0 -1.70687 -2.19456
      CHANNELS 3 Zrotation Xrotation Yrotation
      JOINT lShin
      {
        OFFSET 0 -36.8199 0.73152
        CHANNELS 3 Zrotation Xrotation Yrotation
        JOINT lFoot
        {
          OFFSET -0.73152 -45.1104 -5.12064
          CHANNELS 3 Zrotation Xrotation Yrotation
          End Site
          {
            OFFSET 1.1221 -3.69964 12.103
          }
        }
      }
    }
  }
}
MOTION
Frames:	4
Frame Time:	0.00833333
5.92632 85.3572 201.87 0.0 0.0 0.0 1.31604 -0.00470379 0.0362375 0.363461 -0.00359453 0.0629622 -7.03548e-14 7.95139e-16 -2.73329e-16 -2.11106e-13 3.18055e-15 -7.73397e-16 -0.0 0.0 0.0 -0.0 0.0 0.0 -3.49383e-14 9.51216e-17 9.93923e-17 -7.37374e-13 1.85739e-15 -4.17448e-15 -1.27431e-11 3.87829e-12 6.36111e-14 -1.45783e-10 -3.45495e-12 -7.79236e-13 -3.43896e-10 9.19135e-13 -1.50122e-12 -5.93907e-10 1.5871e-12 -2.57625e-12 -3.43893e-10 9.19578e-13 -1.51712e-12 7.73091 5.47488 0.417314 -3.43896e-10 9.18981e-13 -1.50122e-12 2.90554 0.965183 0.102902 -3.43888e-10 9.18783e-13 -1.50043e-12 10.2786 0.731801 0.0259123 -3.43907e-10 9.21566e-13 -1.4885e-12 2.22167 -0.733487 -0.20892 -3.5235e-14 9.70628e-17 -2.98177e-16 -7.40429e-13 2.15557e-15 -5.76476e-15 -1.27368e-11 -3.74391e-12 8.5875e-14 -1.45799e-10 4.19759e-12 -7.85597e-13 -3.43911e-10 9.8177e-13 -1.4885e-12 -5.93914e-10 1.69842e-12 -2.56432e-12 -3.43918e-10 9.83587e-13 -1.47578e-12 -7.73091 5.47488 -0.417314 -3.43911e-10 9.81698e-13 -1.4885e-12 -2.90554 0.965183 -0.102902 -3.43915e-10 9.81897e-13 -1.49088e-12 -10.2786 0.731801 -0.0259123 -3.439e-10 9.85574e-13 -1.50122e-12 -2.22167 -0.733487 0.20892 -2.03217e-16 0.0 -3.88251e-19 1.46234 -6.13861 -0.134747 0.00180576 5.56146 0.0541853 -0.478043 0.575034 0.0659554 2.03217e-16 0.0 3.88251e-19 0.544823 -1.92085 0.00800319 0.00890945 -2.07861 0.0733757 0.45273 3.99724 -0.131524
7.31656 83.2681 190.393 176.659 3.5367 -176.595 0.476946 0.428661 -2.67526 0.871635 1.18406 -0.675981 1.69033 -3.27812 0.852293 -2.07352 8.82376 2.87408 -0.0 0.0 0.0 -0.0 0.0 0.0 -6.38586e-15 3.39883e-15 -2.81641e-14 19.9899 9.72033 -11.699 -15.4868 -12.7686 14.6638 0.00197113 0.995733 0.139868 -3.07167e-10 -1.69364e-11 -9.18042e-11 -5.30419e-10 -2.8809e-11 -1.58608e-10 -3.07164e-10 -1.69368e-11 -9.18191e-11 7.73091 5.47488 0.417314 -3.07167e-10 -1.69373e-11 -9.18071e-11 2.90554 0.965183 0.102902 -3.07159e-10 -1.69377e-11 -9.18059e-11 10.2786 0.731801 0.0259123 -3.07176e-10 -1.69352e-11 -9.1798e-11 2.22167 -0.733487 -0.20892 -6.61167e-15 3.40018e-15 -2.85198e-14 -19.5103 15.9513 3.80366 20.5934 -18.3834 -15.1502 -0.0755657 6.10411 -0.840393 -4.18752e-10 3.9837e-10 1.18711e-10 -7.20765e-10 6.90987e-10 2.07753e-10 -4.18759e-10 3.98373e-10 1.18725e-10 -7.73091 5.47488 -0.417314 -4.18752e-10 3.98371e-10 1.18711e-10 -2.90554 0.965183 -0.102902 -4.18758e-10 3.9837e-10 1.18711e-10 -10.2786 0.731801 -0.0259123 -4.18744e-10 3.98372e-10 1.18703e-10 -2.22167 -0.733487 0.20892 -2.03217e-16 0.0 -3.88251e-19 2.55939 -13.7849 0.617768 -0.128961 13.2972 -0.06062 -0.444261 3.40142 -1.62846 2.03217e-16 0.0 3.88251e-19 -0.20454 -4.23438 1.13525 0.130443 15.5987 -0.0997378 0.210672 12.1006 2.09975
7.52083 82.6653 188.791 176.88 3.7724 -177.242 -0.398412 0.839071 -5.5805 1.44123 2.44495 -1.47081 3.59076 -6.74306 1.7692 -5.28092 18.1018 6.16558 -0.0 0.0 0.0 -0.0 0.0 0.0 2.5104e-14 6.80045e-15 -5.99056e-14 45.5041 18.6128 -25.2021 -24.5826 -23.448 32.366 -0.00124492 2.0314 0.28549 -2.71142e-10 -3.32742e-11 -1.9825e-10 -4.68148e-10 -5.6496e-11 -3.4252e-10 -2.71139e-10 -3.32756e-11 -1.98263e-10 7.73091 5.47488 0.417314 -2.71142e-10 -3.32761e-11 -1.98256e-10 2.90554 0.965183 0.102902 -2.71135e-10 -3.32766e-11 -1.98254e-10 10.2786 0.731801 0.0259123 -2.7115e-10 -3.32744e-11 -1.9825e-10 2.22167 -0.733487 -0.20892 2.49541e-14 6.80118e-15 -6.02162e-14 -42.7947 32.612 8.93412 30.6164 -33.324 -36.1534 0.0435784 12.5534 -1.76122 -5.18619e-10 8.70336e-10 2.6224e-10 -8.90416e-10 1.50974e-09 4.58867e-10 -5.18625e-10 8.7034e-10 2.62254e-10 -7.73091 5.47488 -0.417314 -5.18618e-10 8.70336e-10 2.6224e-10 -2.90554 0.965183 -0.102902 -5.18627e-10 8.70335e-10 2.62242e-10 -10.2786 0.731801 -0.0259123 -5.18612e-10 8.70336e-10 2.62237e-10 -2.22167 -0.733487 0.20892 -2.03217e-16 0.0 -3.88251e-19 3.90218 -21.9161 1.47315 -0.23061 21.4121 -0.193738 -0.221693 6.48394 -3.38244 2.03217e-16 0.0 3.88251e-19 -0.964488 -6.59661 2.30854 0.390675 34.1192 -0.328178 -0.772036 20.6589 4.62679
7.78916 82.1618 187.256 177.235 4.1554 -177.806 -1.07863 1.28386 -8.10008 1.98001 3.55709 -2.15759 5.36717 -9.82558 2.59072 -9.12229 26.1892 9.5034 -0.0 0.0 0.0 -0.0 0.0 0.0 5.07191e-14 1.00062e-14 -8.46912e-14 71.9495 24.1257 -38.4604 -27.0561 -27.8146 50.2959 -0.00868781 2.98713 0.420111 -2.33708e-10 -5.26474e-11 -2.7241e-10 -4.03443e-10 -8.96012e-11 -4.70671e-10 -2.33705e-10 -5.26496e-11 -2.72423e-10 7.73091 5.47488 0.417314 -2.33708e-10 -5.265e-11 -2.72419e-10 2.90554 0.965183 0.102902 -2.33701e-10 -5.26506e-11 -2.72417e-10 10.2786 0.731801 0.0259123 -2.33715e-10 -5.26487e-11 -2.72417e-10 2.22167 -0.733487 -0.20892 5.06349e-14 1.00064e-14 -8.4963e-14 -67.3067 46.8058 16.1434 29.9818 -37.7733 -59.7797 0.334637 18.2961 -2.64045 -5.68435e-10 1.19315e-09 3.59111e-10 -9.74466e-10 2.06957e-09 6.28387e-10 -5.6844e-10 1.19315e-09 3.59126e-10 -7.73091 5.47488 -0.417314 -5.68433e-10 1.19315e-09 3.59111e-10 -2.90554 0.965183 -0.102902 -5.68444e-10 1.19315e-09 3.59115e-10 -10.2786 0.731801 -0.0259123 -5.6843e-10 1.19315e-09 3.59112e-10 -2.22167 -0.733487 0.20892 -2.03217e-16 0.0 -3.88251e-19 5.43267 -29.0591 2.36582 -0.286435 28.7683 -0.324953 0.129501 9.02342 -5.0716 2.03217e-16 0.0 3.88251e-19 -1.42737 -8.84838 3.42121 0.834454 50.9513 -0.690266 -2.38479 28.1373 7.28664
